<svg xmlns="http://www.w3.org/2000/svg" viewBox="0 0 94.231 72.672">
  <defs>
    <style>
      .cls-1 {
        fill: #989eb5;
        opacity: 0.7;
      }
    </style>
  </defs>
  <path id="Union_181" data-name="Union 181" class="cls-1" d="M16.432,70.89a1.781,1.781,0,1,1,1.781,1.781A1.783,1.783,0,0,1,16.432,70.89Zm.4,0a1.384,1.384,0,1,0,1.384-1.384A1.386,1.386,0,0,0,16.828,70.89Zm-3.577.017.1-.385q.379.094.766.173l-.079.389C13.772,71.032,13.51,70.972,13.251,70.907Zm-2.974-1.066.17-.359c.463.22.942.418,1.424.591l-.134.374A15.7,15.7,0,0,1,10.278,69.841ZM7.57,68.213l.237-.318c.412.307.843.6,1.281.859l-.205.341C8.433,68.824,7.993,68.529,7.57,68.213ZM5.234,66.088l.295-.266c.343.38.709.747,1.088,1.093l-.267.294C5.961,66.854,5.585,66.478,5.234,66.088Zm79.157.428q.355-.076.707-.176c-.191.011-.384.015-.577.015l-.229,0,.008-.4c.263.006.522,0,.781-.012l.02.4c.312-.089.621-.193.923-.31l.144.37a11.14,11.14,0,0,1-1.693.5Zm-71.048.161A2.136,2.136,0,0,1,11.2,64.531V17.337a2.136,2.136,0,0,1,2.145-2.145h7.945l.953-10.805A2.206,2.206,0,0,1,24.625,2.4L84.77,7.645a2.184,2.184,0,0,1,1.509.794,1.947,1.947,0,0,1,.4,1.589L82.545,56.984a2.183,2.183,0,0,1-.794,1.509,2.381,2.381,0,0,1-1.43.477h-.159l-4.29-.4v5.959a2.136,2.136,0,0,1-2.145,2.145Zm2.3-4.29H71.66V19.563H15.648Zm10.09-47.114H73.806a2.136,2.136,0,0,1,2.145,2.145V54.282l2.543.238,3.734-42.585L26.453,7.009ZM87.56,65.288a10.861,10.861,0,0,0,1.4-.973l.252.307a11.116,11.116,0,0,1-1.451,1.009Zm-84.2-1.739.341-.2c.263.439.551.87.856,1.283l-.32.236C3.921,64.443,3.626,64,3.356,63.549Zm86.831-.415a10.861,10.861,0,0,0,1.028-1.359l.335.215A11.335,11.335,0,0,1,90.484,63.4ZM2.007,60.7l.373-.134c.172.48.37.959.59,1.424l-.359.169C2.387,61.68,2.182,61.189,2.007,60.7Zm90.01-.425a10.7,10.7,0,0,0,.553-1.612l.385.1a11.113,11.113,0,0,1-.573,1.672ZM1.238,57.636l.393-.058c.075.506.177,1.014.3,1.51l-.386.1C1.42,58.676,1.316,58.155,1.238,57.636Zm18.7.46V50.469l6.832-7.389a1.415,1.415,0,0,1,.8-.317,1.021,1.021,0,0,1,.794.317l8.66,9.455L55.214,32.751a1.207,1.207,0,0,1,1.589,0L67.291,44.192V58.1ZM92.86,56.978q.036-.386.044-.779l.4.008c-.006.272-.021.541-.045.808ZM1.065,55.286q0-.4.02-.8l.4.019c-.013.262-.019.523-.019.783s.006.508.018.759l-.4.019Q1.065,55.677,1.065,55.286ZM1.243,52.9c.039-.265.086-.528.138-.793l.39.078q-.078.386-.135.773ZM91.2,51.391l-1.087.571.207-1.21-.88-.857,1.216-.177.543-1.1.543,1.1,1.216.177-.88.857.207,1.21Zm.559-.155-.107-.623.453-.442-.626-.09-.28-.567-.28.567-.626.09.453.442-.107.623.56-.294ZM91,34.735a1.419,1.419,0,1,1,1.419,1.419A1.42,1.42,0,0,1,91,34.735Zm.4,0a1.022,1.022,0,1,0,1.022-1.022A1.023,1.023,0,0,0,91.394,34.735Zm-69.152-4.05a5.244,5.244,0,1,1,5.244,5.244A5.243,5.243,0,0,1,22.242,30.685Zm69.975-1.2V27.9h.4v1.589ZM2.548,26.7l-1.575.827.3-1.753L0,24.53l1.76-.255.787-1.6.787,1.6L5.1,24.53,3.823,25.772l.3,1.753Zm1.048.1-.2-1.166.847-.827-1.171-.17-.524-1.06-.523,1.06-1.171.17.847.827L1.5,26.8l1.047-.55Zm88.622-.494V24.717h.4v1.589Zm0-3.178V21.539h.4v1.589Zm0-3.178V18.361h.4V19.95ZM91.2,11.458l-1.877,1.364.716-2.205L88.16,9.252h2.319L91.2,7.045l.716,2.207h2.319l-1.876,1.364.716,2.205Zm1.12.324-.428-1.318,1.123-.815H91.625L91.2,8.331l-.428,1.318H89.382l1.121.815-.428,1.318,1.121-.814ZM18.263,8.774l-1.087.571.207-1.21-.88-.857L17.719,7.1,18.263,6l.543,1.1,1.216.177-.88.857.207,1.21Zm.56-.155L18.716,8l.453-.442-.626-.09-.28-.566-.28.566-.626.09L17.811,8l-.107.623.559-.294Zm64.27-6.838a1.782,1.782,0,1,1,1.782,1.781A1.784,1.784,0,0,1,83.093,1.781Zm.4,0A1.384,1.384,0,1,0,84.875.4,1.386,1.386,0,0,0,83.49,1.781Z"/>
</svg>
