<?xml version="1.0" standalone="no"?>
<!DOCTYPE svg PUBLIC "-//W3C//DTD SVG 20010904//EN"
 "http://www.w3.org/TR/2001/REC-SVG-20010904/DTD/svg10.dtd">
<svg version="1.0" xmlns="http://www.w3.org/2000/svg"
 width="512.000000pt" height="512.000000pt" viewBox="0 0 512.000000 512.000000"
 preserveAspectRatio="xMidYMid meet">
<metadata>
Created by potrace 1.11, written by Peter Selinger 2001-2013
</metadata>
<g transform="translate(0.000000,512.000000) scale(0.100000,-0.100000)"
fill="#000000" stroke="none">
<path d="M2390 5000 c-177 -19 -388 -63 -524 -110 -58 -20 -79 -20 -943 -20
-870 0 -883 0 -903 -20 -20 -20 -20 -33 -20 -1013 0 -1144 -12 -1027 106
-1027 l69 0 0 -242 c0 -272 14 -388 70 -613 41 -163 94 -306 167 -455 l56
-115 1 577 c1 510 3 578 17 592 14 14 100 16 800 16 773 0 784 0 804 -20 20
-20 20 -30 18 -665 -2 -512 -6 -647 -16 -657 -10 -10 -69 -14 -232 -16 l-220
-3 0 -205 c0 -157 -3 -204 -13 -204 -7 0 -104 92 -217 205 l-205 205 -312 0
c-172 0 -313 -3 -313 -7 1 -19 160 -218 256 -321 380 -404 876 -662 1444 -749
160 -24 520 -24 680 0 895 138 1618 713 1944 1548 24 63 47 126 51 140 6 24
12 27 66 31 70 5 88 20 96 75 5 39 5 39 -321 426 -180 213 -335 391 -346 397
-13 7 -26 7 -42 -1 -13 -6 -102 -105 -198 -221 -96 -115 -183 -214 -193 -219
-11 -6 -29 -8 -40 -5 -13 3 -164 175 -357 405 -184 219 -345 404 -358 410 -15
7 -29 8 -41 1 -10 -5 -162 -179 -337 -387 -402 -477 -595 -703 -600 -703 -2 0
-4 176 -4 390 l0 390 178 0 c161 0 181 2 195 18 15 17 17 65 17 490 l0 472
1030 0 c567 0 1030 4 1030 8 0 4 -30 53 -66 107 -301 454 -734 792 -1242 969
-126 44 -314 90 -452 111 -124 19 -459 27 -580 15z m-1470 -625 c51 -26 844
-486 858 -497 6 -6 12 -23 12 -39 0 -22 -9 -34 -37 -53 -76 -48 -827 -479
-853 -489 -35 -13 -58 -4 -70 29 -7 17 -10 208 -8 529 3 532 3 535 50 535 10
0 32 -7 48 -15z m2250 -3236 c135 -77 250 -145 257 -151 7 -6 13 -23 13 -39 0
-37 -15 -47 -298 -210 -228 -130 -235 -133 -260 -118 l-27 15 -3 308 c-2 219
1 313 9 322 25 30 68 12 309 -127z"/>
</g>
</svg>
